:SAMPLES-PER-SECOND 30
:FULLY-SPECIFIED
:DEGREES
2029
root  55.4916 30.4824 -4.57725 173.07 -60.6617 -179.316
RightUpLeg  -43.8276 -3.60868 -2.6743
RightLeg  71.9994 1.01856 2.59674
RightFoot  -20.1071 -0.223991 -1.15202
RightToes  7.56698e-010 0 -3.6325e-017
Spine  38.778 -6.52861 0.741955
Spine1  -8.02171 -6.38043 1.54155
HEad  -42.5957 32.9728 -13.5876
LeftShoulder1  0.105177 -4.77711 8.20268
LeftArm  -55.2606 -74.5748 3.42527
LeftForeArm  -18.5107 -49.3741 -14.3446
LeftHand  -0.709503 10.508 -14.0558
RightShoulder  0.646428 0.34357 9.50681
RightArm  -58.9723 9.53187 25.3374
RightForeArm  81.1333 63.1844 153.411
RightHand  -4.73638 26.6726 -17.3196
LeftUpLeg  -23.8795 2.74099 18.8998
LeftLeg  84.201 -0.487058 -3.29065
LeftFoot  -19.3813 -0.716674 -11.4619
LeftToes  -2.88401e-009 5.30678e-011 -1.08654e-010
2030
root  55.1919 30.889 -5.24597 174.271 -61.9933 179.487
RightUpLeg  -41.9092 -4.36234 -2.73467
RightLeg  71.1631 0.879832 1.99986
RightFoot  -21.1994 -0.25076 -1.24813
RightToes  7.56698e-010 0 -3.6325e-017
Spine  38.5467 -6.353 0.274258
Spine1  -8.45752 -6.46528 2.47918
HEad  -42.4594 32.377 -14.1655
LeftShoulder1  0.136938 -4.94784 7.79749
LeftArm  -54.1082 -74.75 3.09814
LeftForeArm  -18.3508 -49.6003 -14.449
LeftHand  -0.80545 11.4766 -13.4628
RightShoulder  0.537856 -0.350593 9.81338
RightArm  -58.5002 9.92719 24.4287
RightForeArm  80.2262 63.6107 152.888
RightHand  -4.76999 26.6802 -17.4364
LeftUpLeg  -25.034 3.49015 18.0828
LeftLeg  84.1133 -0.239609 0.253408
LeftFoot  -12.3346 0.0149545 -6.89203
LeftToes  -2.88401e-009 5.30678e-011 -1.08654e-010
2031
root  54.878 31.4443 -5.83352 175.862 -63.1808 178.073
RightUpLeg  -39.8038 -4.8989 -2.98245
RightLeg  69.4107 0.752826 1.42621
RightFoot  -21.7842 -0.243675 -1.05233
RightToes  7.56698e-010 0 -3.6325e-017
Spine  37.99 -6.38262 -0.138499
Spine1  -8.65818 -6.69977 2.87801
HEad  -42.8466 32.5436 -13.9795
LeftShoulder1  0.16225 -4.84004 7.42814
LeftArm  -54.2549 -74.7417 3.88518
LeftForeArm  -19.9618 -49.583 -14.5368
LeftHand  -0.711745 11.6894 -11.4371
RightShoulder  0.468618 -0.787021 10.0364
RightArm  -58.2516 10.4428 23.7546
RightForeArm  81.0557 63.7846 152.704
RightHand  -4.49936 26.7242 -16.4641
LeftUpLeg  -25.6684 5.45867 16.8785
LeftLeg  82.9464 -0.118461 1.84591
LeftFoot  -8.81297 0.163588 -4.74243
LeftToes  -2.88401e-009 5.30678e-011 -1.08654e-010
2032
root  54.5845 32.1708 -6.34859 177.35 -64.2017 177.039
RightUpLeg  -37.4475 -5.52071 -3.00788
RightLeg  66.4193 0.67109 1.00244
RightFoot  -21.7487 -0.235192 -0.96628
RightToes  7.56698e-010 0 -3.6325e-017
Spine  37.5074 -6.55095 -0.0475781
Spine1  -9.22873 -6.81736 2.33241
HEad  -42.5043 31.4093 -18.3179
LeftShoulder1  0.138652 -4.81524 7.74554
LeftArm  -54.2814 -74.5553 4.00912
LeftForeArm  -19.0254 -50.0935 -14.7431
LeftHand  -0.639434 11.9292 -10.2026
RightShoulder  0.509195 -0.503711 9.71862
RightArm  -58.766 9.34496 23.1126
RightForeArm  81.4828 63.5981 152.939
RightHand  -4.26976 26.1507 -15.9451
LeftUpLeg  -26.0546 8.02019 15.8399
LeftLeg  81.0013 -0.463655 -1.58832
LeftFoot  -10.5084 0.119866 -7.88985
LeftToes  -2.88401e-009 5.30678e-011 -1.08654e-010
2033
root  54.2946 32.9644 -6.79778 178.998 -65.525 175.949
RightUpLeg  -34.9471 -6.60517 -3.15545
RightLeg  62.7766 0.654061 0.808165
RightFoot  -21.2996 -0.219982 -0.870413
RightToes  7.56698e-010 0 -3.6325e-017
Spine  36.7282 -6.69987 -0.135237
Spine1  -9.35263 -7.04428 2.2272
HEad  -38.176 26.1757 -32.2829
LeftShoulder1  0.144601 -4.67384 7.62933
LeftArm  -56.466 -74.7493 5.47148
LeftForeArm  -17.0549 -49.7176 -14.4311
LeftHand  -0.493218 8.61567 -14.7565
RightShoulder  0.509055 -0.437671 9.29514
RightArm  -59.2038 9.0183 22.6332
RightForeArm  81.2481 63.4472 153.112
RightHand  -4.41298 27.0152 -16.0015
LeftUpLeg  -26.7199 10.793 14.4888
LeftLeg  78.7949 -0.704273 -2.73429
LeftFoot  -11.6414 0.0447192 -9.95667
LeftToes  -2.88401e-009 5.30678e-011 -1.08654e-010
2034
root  54.0096 33.7693 -7.22247 -179.175 -66.6091 174.732
RightUpLeg  -32.4658 -7.32645 -3.31851
RightLeg  58.772 0.583239 0.55175
RightFoot  -20.567 -0.192462 -0.658772
RightToes  7.56698e-010 0 -3.6325e-017
Spine  36.2128 -6.53044 -0.556131
Spine1  -9.91912 -7.06137 2.42325
HEad  -37.1693 27.1073 -30.1007
LeftShoulder1  0.121059 -4.7942 7.98521
LeftArm  -58.253 -74.8346 5.6911
LeftForeArm  -18.0792 -49.4676 -14.366
LeftHand  -0.539338 9.64518 -12.5403
RightShoulder  0.470433 -0.702312 9.53071
RightArm  -59.3438 9.49105 21.5489
RightForeArm  79.663 63.6962 152.765
RightHand  -5.10382 27.2377 -18.2918
LeftUpLeg  -27.4465 13.6012 13.2015
LeftLeg  76.1992 -0.569857 -1.45487
LeftFoot  -12.2341 -0.00815576 -10.466
LeftToes  -2.88401e-009 5.30678e-011 -1.08654e-010
2035
root  53.7238 34.5846 -7.58978 -177.115 -67.8844 173.221
RightUpLeg  -29.8363 -8.24943 -3.63967
RightLeg  54.4198 0.446054 0.255316
RightFoot  -19.5239 -0.158149 -0.362801
RightToes  7.56698e-010 0 -3.6325e-017
Spine  35.5503 -6.48541 -1.06823
Spine1  -10.1665 -7.21764 2.48393
HEad  -35.7118 27.5288 -29.0273
LeftShoulder1  0.112386 -4.56047 8.05723
LeftArm  -60.267 -75.2265 6.73531
LeftForeArm  -18.0177 -49.1907 -14.2231
LeftHand  -0.465494 9.30078 -11.6568
RightShoulder  0.341501 -1.49009 9.72678
RightArm  -59.2478 11.07 20.9479
RightForeArm  79.8612 64.6658 151.569
RightHand  -4.45357 25.8048 -16.7701
LeftUpLeg  -28.2457 15.3815 11.8775
LeftLeg  73.1812 -0.333363 -0.200215
LeftFoot  -12.1546 0.0014599 -9.9934
LeftToes  -2.88401e-009 5.30678e-011 -1.08654e-010
2036
root  53.4089 35.2844 -7.91146 -175.456 -69.0534 172.086
RightUpLeg  -27.4064 -9.17946 -3.86025
RightLeg  50.4811 0.420908 0.165655
RightFoot  -18.4971 -0.134843 -0.159249
RightToes  7.56698e-010 0 -3.6325e-017
Spine  34.7485 -6.47002 -1.38542
Spine1  -10.125 -7.34436 2.63887
HEad  -33.6193 28.7663 -28.1064
LeftShoulder1  0.0978317 -3.96327 8.15247
LeftArm  -62.7848 -75.8322 8.22773
LeftForeArm  -18.1213 -48.9419 -14.1057
LeftHand  -0.466475 9.22614 -11.9035
RightShoulder  0.325591 -1.53541 9.3773
RightArm  -59.5136 11.351 21.0005
RightForeArm  80.57 64.9655 151.195
RightHand  -4.18715 24.7203 -16.3581
LeftUpLeg  -28.8804 16.8232 11.0541
LeftLeg  69.7832 -0.346311 -0.187593
LeftFoot  -11.9662 0.0192528 -9.58738
LeftToes  -2.88401e-009 5.30678e-011 -1.08654e-010
